<svg width="760" height="690" viewBox="0 0 760 690" fill="none" xmlns="http://www.w3.org/2000/svg">
<path d="M132.84 552H121.32C119.88 552 119.4 551.16 119.88 549.48L138.84 477.36C139.4 475.68 140.6 474.84 142.44 474.84H158.4C160.4 474.84 161.6 475.68 162 477.36L180.96 549.48C181.44 551.16 180.96 552 179.52 552H168C167.12 552 166.52 551.84 166.2 551.52C165.88 551.12 165.64 550.44 165.48 549.48L162.12 536.28H138.72L135.36 549.48C135.2 550.44 134.92 551.12 134.52 551.52C134.2 551.84 133.64 552 132.84 552ZM150.24 489.36L141.6 524.04H159.36L150.72 489.36H150.24ZM204.317 552H194.117C192.437 552 191.597 551.16 191.597 549.48V477.36C191.597 475.68 192.437 474.84 194.117 474.84H222.677C228.917 474.84 233.797 476.56 237.317 480C240.837 483.44 242.597 488.28 242.597 494.52V503.88C242.597 512.92 239.037 518.92 231.917 521.88V522.36L244.757 549.12C245.477 551.04 244.797 552 242.717 552H232.997C231.557 552 230.517 551.84 229.877 551.52C229.237 551.2 228.717 550.52 228.317 549.48L216.317 523.56H208.277C207.317 523.56 206.837 524 206.837 524.88V549.48C206.837 551.16 205.997 552 204.317 552ZM208.157 511.32H219.917C222.477 511.32 224.357 510.8 225.557 509.76C226.757 508.64 227.357 506.88 227.357 504.48V495.12C227.357 492.64 226.757 490.84 225.557 489.72C224.357 488.6 222.477 488.04 219.917 488.04H208.157C207.277 488.04 206.837 488.48 206.837 489.36V510C206.837 510.88 207.277 511.32 208.157 511.32ZM288.902 552H275.822C269.502 552 264.622 550.32 261.182 546.96C257.742 543.6 256.022 538.76 256.022 532.44V494.4C256.022 488.08 257.742 483.24 261.182 479.88C264.622 476.52 269.502 474.84 275.822 474.84H288.902C295.142 474.84 299.982 476.56 303.422 480C306.942 483.36 308.702 488.16 308.702 494.4V500.04C308.702 501.8 307.822 502.68 306.062 502.68H295.982C294.302 502.68 293.462 501.8 293.462 500.04V495.12C293.462 492.56 292.902 490.76 291.782 489.72C290.742 488.6 288.942 488.04 286.382 488.04H278.222C275.742 488.04 273.942 488.6 272.822 489.72C271.782 490.76 271.262 492.56 271.262 495.12V531.72C271.262 534.28 271.782 536.12 272.822 537.24C273.942 538.28 275.742 538.8 278.222 538.8H286.382C288.942 538.8 290.742 538.28 291.782 537.24C292.902 536.12 293.462 534.28 293.462 531.72V526.8C293.462 525.04 294.302 524.16 295.982 524.16H306.062C307.822 524.16 308.702 525.04 308.702 526.8V532.44C308.702 538.68 306.942 543.52 303.422 546.96C299.982 550.32 295.142 552 288.902 552ZM334.512 552H324.312C322.632 552 321.792 551.16 321.792 549.48V477.36C321.792 475.68 322.632 474.84 324.312 474.84H334.512C336.192 474.84 337.032 475.68 337.032 477.36V505.56C337.032 506.44 337.512 506.88 338.472 506.88H358.752C359.632 506.88 360.072 506.44 360.072 505.56V477.36C360.072 475.68 360.912 474.84 362.592 474.84H372.792C374.472 474.84 375.312 475.68 375.312 477.36V549.48C375.312 551.16 374.472 552 372.792 552H362.592C360.912 552 360.072 551.16 360.072 549.48V521.4C360.072 520.52 359.632 520.08 358.752 520.08H338.472C337.512 520.08 337.032 520.52 337.032 521.4V549.48C337.032 551.16 336.192 552 334.512 552Z" fill="#FFD86E"/>
<path d="M406.773 477.36V549.48C406.773 551.16 405.933 552 404.253 552H394.053C392.373 552 391.533 551.16 391.533 549.48V477.36C391.533 475.68 392.373 474.84 394.053 474.84H404.253C405.933 474.84 406.773 475.68 406.773 477.36ZM446.805 552H436.725C434.965 552 434.085 551.16 434.085 549.48V489.36C434.085 488.48 433.645 488.04 432.765 488.04H419.085C417.405 488.04 416.565 487.2 416.565 485.52V477.36C416.565 475.68 417.405 474.84 419.085 474.84H464.445C466.125 474.84 466.965 475.68 466.965 477.36V485.52C466.965 487.2 466.125 488.04 464.445 488.04H450.765C449.805 488.04 449.325 488.48 449.325 489.36V549.48C449.325 551.16 448.485 552 446.805 552ZM517.888 552H478.648C476.968 552 476.128 551.16 476.128 549.48V477.36C476.128 475.68 476.968 474.84 478.648 474.84H517.888C519.488 474.84 520.288 475.68 520.288 477.36V485.52C520.288 487.2 519.488 488.04 517.888 488.04H492.808C491.848 488.04 491.368 488.48 491.368 489.36V504.96C491.368 505.84 491.848 506.28 492.808 506.28H513.328C515.008 506.28 515.848 507.12 515.848 508.8V516.96C515.848 518.64 515.008 519.48 513.328 519.48H492.808C491.848 519.48 491.368 519.92 491.368 520.8V537.48C491.368 538.36 491.848 538.8 492.808 538.8H517.888C519.488 538.8 520.288 539.64 520.288 541.32V549.48C520.288 551.16 519.488 552 517.888 552ZM565.23 552H552.15C545.83 552 540.95 550.32 537.51 546.96C534.07 543.6 532.35 538.76 532.35 532.44V494.4C532.35 488.08 534.07 483.24 537.51 479.88C540.95 476.52 545.83 474.84 552.15 474.84H565.23C571.47 474.84 576.31 476.56 579.75 480C583.27 483.36 585.03 488.16 585.03 494.4V500.04C585.03 501.8 584.15 502.68 582.39 502.68H572.31C570.63 502.68 569.79 501.8 569.79 500.04V495.12C569.79 492.56 569.23 490.76 568.11 489.72C567.07 488.6 565.27 488.04 562.71 488.04H554.55C552.07 488.04 550.27 488.6 549.15 489.72C548.11 490.76 547.59 492.56 547.59 495.12V531.72C547.59 534.28 548.11 536.12 549.15 537.24C550.27 538.28 552.07 538.8 554.55 538.8H562.71C565.27 538.8 567.07 538.28 568.11 537.24C569.23 536.12 569.79 534.28 569.79 531.72V526.8C569.79 525.04 570.63 524.16 572.31 524.16H582.39C584.15 524.16 585.03 525.04 585.03 526.8V532.44C585.03 538.68 583.27 543.52 579.75 546.96C576.31 550.32 571.47 552 565.23 552ZM622 552H611.92C610.16 552 609.28 551.16 609.28 549.48V489.36C609.28 488.48 608.84 488.04 607.96 488.04H594.28C592.6 488.04 591.76 487.2 591.76 485.52V477.36C591.76 475.68 592.6 474.84 594.28 474.84H639.64C641.32 474.84 642.16 475.68 642.16 477.36V485.52C642.16 487.2 641.32 488.04 639.64 488.04H625.96C625 488.04 624.52 488.48 624.52 489.36V549.48C624.52 551.16 623.68 552 622 552Z" fill="#242932"/>
<rect x="237" y="142" width="286" height="252" rx="16" fill="url(#paint0_linear_944_116)"/>
<rect x="249.5" y="158.5" width="260" height="219" rx="9.5" stroke="#242932" stroke-dasharray="13 13"/>
<path d="M380.906 202.219L376.719 210.656L377.614 211.101L373.427 219.538L372.531 219.094L368.344 227.531L369.239 227.976L365.052 236.413L364.156 235.969L359.969 244.406L360.864 244.851L356.677 253.288L355.781 252.844L351.594 261.281L352.489 261.726L348.302 270.163L347.406 269.719L343.219 278.156L344.114 278.601L339.927 287.038L339.031 286.594L334.844 295.031L335.739 295.476L331.552 303.913L330.656 303.469L326.469 311.906L327.364 312.351L323.177 320.788L322.281 320.344L318.094 328.781L318.989 329.226L318.368 330.478C318.814 330.223 319.257 329.97 319.699 329.719L320.193 330.588C323.102 328.935 325.92 327.375 328.658 325.91L328.187 325.028C331.152 323.442 334.026 321.964 336.821 320.596L337.261 321.494C340.277 320.017 343.199 318.67 346.043 317.451L345.649 316.532C348.755 315.2 351.772 314.02 354.721 312.991L355.05 313.936C358.21 312.833 361.288 311.908 364.309 311.16L364.069 310.189C365.333 309.876 366.589 309.593 367.838 309.341C367.75 308.907 367.669 308.468 367.596 308.025L368.582 307.861C368.336 306.379 368.171 304.844 368.095 303.271L367.096 303.319C367.059 302.54 367.042 301.751 367.049 300.955L367.049 300.947L367.049 300.938L367.053 300.769L368.053 300.794L368.061 300.457L367.061 300.432L367.066 300.263C367.099 298.896 367.198 297.558 367.358 296.258L368.351 296.379C368.687 293.64 369.299 291.076 370.136 288.763L369.195 288.423C370.188 285.677 371.496 283.25 373.051 281.271L373.837 281.889C375.618 279.622 377.719 278.002 380.004 277.23L379.684 276.283C381.049 275.822 382.482 275.634 383.952 275.759C385.438 275.886 386.862 276.324 388.197 277.022L387.733 277.908C389.923 279.053 391.895 280.977 393.533 283.471L394.369 282.922C395.805 285.109 396.984 287.697 397.843 290.554L396.885 290.842C397.628 293.309 398.129 295.996 398.34 298.816L399.338 298.741C399.44 300.101 399.476 301.491 399.441 302.901L399.441 302.901C399.425 303.54 399.395 304.174 399.351 304.8L398.354 304.731C398.266 305.993 398.122 307.225 397.924 308.419L398.911 308.582C398.862 308.877 398.81 309.171 398.755 309.461C399.99 309.72 401.233 310.009 402.485 310.327L402.239 311.296C405.224 312.055 408.264 312.985 411.386 314.087L411.719 313.144C414.634 314.174 417.615 315.35 420.684 316.673L420.288 317.592C423.1 318.805 425.989 320.143 428.97 321.606L429.41 320.709C432.176 322.066 435.018 323.531 437.95 325.101L437.478 325.983C440.187 327.434 442.975 328.978 445.851 330.613L446.346 329.744C446.773 329.987 447.201 330.232 447.632 330.478L447.01 329.226L447.906 328.781L443.719 320.344L442.823 320.788L438.635 312.351L439.531 311.906L435.344 303.469L434.448 303.913L430.26 295.476L431.156 295.031L426.969 286.594L426.073 287.038L421.885 278.601L422.781 278.156L418.594 269.719L417.698 270.163L413.51 261.726L414.406 261.281L410.219 252.844L409.323 253.288L405.135 244.851L406.031 244.406L401.844 235.969L400.948 236.413L396.76 227.976L397.656 227.531L393.469 219.094L392.573 219.538L388.385 211.101L389.281 210.656L385.094 202.219L384.198 202.663L383 200.249L381.802 202.663L380.906 202.219Z" stroke="#242932" stroke-width="2" stroke-dasharray="10 10"/>
<g style="mix-blend-mode:multiply" opacity="0.7">
<path d="M277 142H284V394H277V142Z" fill="#B39A51"/>
</g>
<path d="M237 142C237 128.193 248.193 117 262 117H277V368H248C241.925 368 237 363.075 237 357V142Z" fill="#FFD86E"/>
<g style="mix-blend-mode:multiply" opacity="0.7">
<path d="M237 378C237 369.163 244.163 362 253 362H277V394H253C244.163 394 237 386.837 237 378V378Z" fill="#B39A51"/>
</g>
<g style="mix-blend-mode:multiply" opacity="0.07">
<rect x="277.25" y="189.25" width="229.5" height="0.5" stroke="#242932" stroke-width="0.5"/>
<rect x="277.25" y="221.65" width="229.5" height="0.5" stroke="#242932" stroke-width="0.5"/>
<rect x="277.25" y="254.05" width="229.5" height="0.5" stroke="#242932" stroke-width="0.5"/>
<rect x="277.25" y="286.45" width="229.5" height="0.5" stroke="#242932" stroke-width="0.5"/>
<rect x="277.25" y="318.85" width="229.5" height="0.5" stroke="#242932" stroke-width="0.5"/>
<rect x="277.25" y="351.25" width="229.5" height="0.5" stroke="#242932" stroke-width="0.5"/>
</g>
<g style="mix-blend-mode:multiply" opacity="0.07">
<rect x="473.75" y="158.25" width="219.5" height="0.5" transform="rotate(90 473.75 158.25)" stroke="#242932" stroke-width="0.5"/>
<rect x="439.35" y="158.25" width="219.5" height="0.5" transform="rotate(90 439.35 158.25)" stroke="#242932" stroke-width="0.5"/>
<rect x="404.95" y="158.25" width="219.5" height="0.5" transform="rotate(90 404.95 158.25)" stroke="#242932" stroke-width="0.5"/>
<rect x="370.55" y="158.25" width="219.5" height="0.5" transform="rotate(90 370.55 158.25)" stroke="#242932" stroke-width="0.5"/>
<rect x="336.15" y="158.25" width="219.5" height="0.5" transform="rotate(90 336.15 158.25)" stroke="#242932" stroke-width="0.5"/>
<rect x="301.75" y="158.25" width="219.5" height="0.5" transform="rotate(90 301.75 158.25)" stroke="#242932" stroke-width="0.5"/>
</g>
<defs>
<linearGradient id="paint0_linear_944_116" x1="291" y1="245.5" x2="509" y2="386" gradientUnits="userSpaceOnUse">
<stop stop-color="#FFD971"/>
<stop offset="1" stop-color="#FFE08B"/>
</linearGradient>
</defs>
</svg>
