<svg width="760" height="690" viewBox="0 0 760 690" fill="none" xmlns="http://www.w3.org/2000/svg">
<path d="M132.84 552H121.32C119.88 552 119.4 551.16 119.88 549.48L138.84 477.36C139.4 475.68 140.6 474.84 142.44 474.84H158.4C160.4 474.84 161.6 475.68 162 477.36L180.96 549.48C181.44 551.16 180.96 552 179.52 552H168C167.12 552 166.52 551.84 166.2 551.52C165.88 551.12 165.64 550.44 165.48 549.48L162.12 536.28H138.72L135.36 549.48C135.2 550.44 134.92 551.12 134.52 551.52C134.2 551.84 133.64 552 132.84 552ZM150.24 489.36L141.6 524.04H159.36L150.72 489.36H150.24ZM204.317 552H194.117C192.437 552 191.597 551.16 191.597 549.48V477.36C191.597 475.68 192.437 474.84 194.117 474.84H222.677C228.917 474.84 233.797 476.56 237.317 480C240.837 483.44 242.597 488.28 242.597 494.52V503.88C242.597 512.92 239.037 518.92 231.917 521.88V522.36L244.757 549.12C245.477 551.04 244.797 552 242.717 552H232.997C231.557 552 230.517 551.84 229.877 551.52C229.237 551.2 228.717 550.52 228.317 549.48L216.317 523.56H208.277C207.317 523.56 206.837 524 206.837 524.88V549.48C206.837 551.16 205.997 552 204.317 552ZM208.157 511.32H219.917C222.477 511.32 224.357 510.8 225.557 509.76C226.757 508.64 227.357 506.88 227.357 504.48V495.12C227.357 492.64 226.757 490.84 225.557 489.72C224.357 488.6 222.477 488.04 219.917 488.04H208.157C207.277 488.04 206.837 488.48 206.837 489.36V510C206.837 510.88 207.277 511.32 208.157 511.32ZM288.902 552H275.822C269.502 552 264.622 550.32 261.182 546.96C257.742 543.6 256.022 538.76 256.022 532.44V494.4C256.022 488.08 257.742 483.24 261.182 479.88C264.622 476.52 269.502 474.84 275.822 474.84H288.902C295.142 474.84 299.982 476.56 303.422 480C306.942 483.36 308.702 488.16 308.702 494.4V500.04C308.702 501.8 307.822 502.68 306.062 502.68H295.982C294.302 502.68 293.462 501.8 293.462 500.04V495.12C293.462 492.56 292.902 490.76 291.782 489.72C290.742 488.6 288.942 488.04 286.382 488.04H278.222C275.742 488.04 273.942 488.6 272.822 489.72C271.782 490.76 271.262 492.56 271.262 495.12V531.72C271.262 534.28 271.782 536.12 272.822 537.24C273.942 538.28 275.742 538.8 278.222 538.8H286.382C288.942 538.8 290.742 538.28 291.782 537.24C292.902 536.12 293.462 534.28 293.462 531.72V526.8C293.462 525.04 294.302 524.16 295.982 524.16H306.062C307.822 524.16 308.702 525.04 308.702 526.8V532.44C308.702 538.68 306.942 543.52 303.422 546.96C299.982 550.32 295.142 552 288.902 552ZM334.512 552H324.312C322.632 552 321.792 551.16 321.792 549.48V477.36C321.792 475.68 322.632 474.84 324.312 474.84H334.512C336.192 474.84 337.032 475.68 337.032 477.36V505.56C337.032 506.44 337.512 506.88 338.472 506.88H358.752C359.632 506.88 360.072 506.44 360.072 505.56V477.36C360.072 475.68 360.912 474.84 362.592 474.84H372.792C374.472 474.84 375.312 475.68 375.312 477.36V549.48C375.312 551.16 374.472 552 372.792 552H362.592C360.912 552 360.072 551.16 360.072 549.48V521.4C360.072 520.52 359.632 520.08 358.752 520.08H338.472C337.512 520.08 337.032 520.52 337.032 521.4V549.48C337.032 551.16 336.192 552 334.512 552Z" fill="#FFD86E"/>
<path d="M406.773 477.36V549.48C406.773 551.16 405.933 552 404.253 552H394.053C392.373 552 391.533 551.16 391.533 549.48V477.36C391.533 475.68 392.373 474.84 394.053 474.84H404.253C405.933 474.84 406.773 475.68 406.773 477.36ZM446.805 552H436.725C434.965 552 434.085 551.16 434.085 549.48V489.36C434.085 488.48 433.645 488.04 432.765 488.04H419.085C417.405 488.04 416.565 487.2 416.565 485.52V477.36C416.565 475.68 417.405 474.84 419.085 474.84H464.445C466.125 474.84 466.965 475.68 466.965 477.36V485.52C466.965 487.2 466.125 488.04 464.445 488.04H450.765C449.805 488.04 449.325 488.48 449.325 489.36V549.48C449.325 551.16 448.485 552 446.805 552ZM517.888 552H478.648C476.968 552 476.128 551.16 476.128 549.48V477.36C476.128 475.68 476.968 474.84 478.648 474.84H517.888C519.488 474.84 520.288 475.68 520.288 477.36V485.52C520.288 487.2 519.488 488.04 517.888 488.04H492.808C491.848 488.04 491.368 488.48 491.368 489.36V504.96C491.368 505.84 491.848 506.28 492.808 506.28H513.328C515.008 506.28 515.848 507.12 515.848 508.8V516.96C515.848 518.64 515.008 519.48 513.328 519.48H492.808C491.848 519.48 491.368 519.92 491.368 520.8V537.48C491.368 538.36 491.848 538.8 492.808 538.8H517.888C519.488 538.8 520.288 539.64 520.288 541.32V549.48C520.288 551.16 519.488 552 517.888 552ZM565.23 552H552.15C545.83 552 540.95 550.32 537.51 546.96C534.07 543.6 532.35 538.76 532.35 532.44V494.4C532.35 488.08 534.07 483.24 537.51 479.88C540.95 476.52 545.83 474.84 552.15 474.84H565.23C571.47 474.84 576.31 476.56 579.75 480C583.27 483.36 585.03 488.16 585.03 494.4V500.04C585.03 501.8 584.15 502.68 582.39 502.68H572.31C570.63 502.68 569.79 501.8 569.79 500.04V495.12C569.79 492.56 569.23 490.76 568.11 489.72C567.07 488.6 565.27 488.04 562.71 488.04H554.55C552.07 488.04 550.27 488.6 549.15 489.72C548.11 490.76 547.59 492.56 547.59 495.12V531.72C547.59 534.28 548.11 536.12 549.15 537.24C550.27 538.28 552.07 538.8 554.55 538.8H562.71C565.27 538.8 567.07 538.28 568.11 537.24C569.23 536.12 569.79 534.28 569.79 531.72V526.8C569.79 525.04 570.63 524.16 572.31 524.16H582.39C584.15 524.16 585.03 525.04 585.03 526.8V532.44C585.03 538.68 583.27 543.52 579.75 546.96C576.31 550.32 571.47 552 565.23 552ZM622 552H611.92C610.16 552 609.28 551.16 609.28 549.48V489.36C609.28 488.48 608.84 488.04 607.96 488.04H594.28C592.6 488.04 591.76 487.2 591.76 485.52V477.36C591.76 475.68 592.6 474.84 594.28 474.84H639.64C641.32 474.84 642.16 475.68 642.16 477.36V485.52C642.16 487.2 641.32 488.04 639.64 488.04H625.96C625 488.04 624.52 488.48 624.52 489.36V549.48C624.52 551.16 623.68 552 622 552Z" fill="#242932"/>
<rect x="237" y="142" width="286" height="252" rx="16" fill="url(#paint0_linear_944_116)"/>
<rect x="249.5" y="158.5" width="260" height="219" rx="9.5" stroke="#242932" stroke-dasharray="13 13"/>
<path fill-rule="evenodd" clip-rule="evenodd" d="M379.115 201.33L383 193.501L386.885 201.33L385.094 202.219L383 198L380.906 202.219L379.115 201.33ZM376.719 210.656L374.927 209.767L370.74 218.205L372.531 219.094L376.719 210.656ZM368.344 227.531L366.552 226.642L362.365 235.08L364.156 235.969L368.344 227.531ZM359.969 244.406L358.177 243.517L353.99 251.955L355.781 252.844L359.969 244.406ZM351.594 261.281L349.802 260.392L345.615 268.83L347.406 269.719L351.594 261.281ZM343.219 278.156L341.427 277.267L337.24 285.705L339.031 286.594L343.219 278.156ZM334.844 295.031L333.052 294.142L328.865 302.58L330.656 303.469L334.844 295.031ZM326.469 311.906L324.677 311.017L320.49 319.455L322.281 320.344L326.469 311.906ZM318.094 328.781L316.302 327.892L311.247 338.078L317.006 334.729C318.419 333.907 319.811 333.106 321.182 332.327L320.193 330.588C319.84 330.789 319.485 330.991 319.129 331.195C318.611 331.491 318.09 331.79 317.567 332.092C317.048 332.392 316.525 332.695 316 333L318.094 328.781ZM328.659 325.91L329.602 327.674C332.54 326.102 335.382 324.641 338.141 323.29L337.261 321.494C334.478 322.856 331.615 324.328 328.659 325.91ZM346.043 317.451L346.831 319.289C349.881 317.982 352.833 316.827 355.709 315.824L355.051 313.936C352.126 314.956 349.13 316.127 346.043 317.451ZM364.309 311.16L364.79 313.101C366.344 312.716 367.88 312.38 369.403 312.091L371.447 311.704L370.979 309.676C370.818 308.978 370.677 308.263 370.555 307.533L368.582 307.861C368.599 307.963 368.617 308.064 368.634 308.165C368.692 308.496 368.754 308.824 368.819 309.148C368.886 309.477 368.956 309.803 369.031 310.126C368.704 310.188 368.377 310.252 368.049 310.318C367.723 310.384 367.396 310.452 367.069 310.522C366.154 310.718 365.234 310.931 364.309 311.16ZM370.136 288.763L372.017 289.443C372.918 286.95 374.081 284.815 375.41 283.125L373.837 281.889C372.358 283.772 371.098 286.102 370.136 288.763ZM380.004 277.23L380.644 279.125C381.634 278.791 382.653 278.659 383.697 278.748C384.754 278.839 385.794 279.152 386.807 279.681L387.734 277.908C386.506 277.267 385.21 276.87 383.867 276.756C382.539 276.642 381.244 276.811 380.004 277.23ZM393.533 283.471L391.862 284.569C393.118 286.483 394.183 288.801 394.97 291.418L396.885 290.842C396.05 288.065 394.91 285.567 393.533 283.471ZM398.34 298.816L396.346 298.966C396.441 300.226 396.474 301.516 396.442 302.826C396.427 303.421 396.399 304.01 396.359 304.592L398.354 304.731C398.397 304.119 398.426 303.501 398.442 302.876C398.475 301.499 398.44 300.143 398.34 298.816ZM397.925 308.419L395.951 308.092C395.854 308.678 395.744 309.252 395.621 309.814L395.184 311.809L397.188 312.204C398.693 312.501 400.211 312.844 401.746 313.234L402.239 311.296C401.332 311.065 400.43 310.851 399.532 310.652C399.206 310.58 398.88 310.509 398.555 310.441C398.228 310.373 397.901 310.306 397.575 310.242C397.646 309.919 397.712 309.592 397.775 309.262C397.805 309.103 397.834 308.943 397.862 308.783C397.884 308.662 397.904 308.54 397.925 308.419ZM411.386 314.087L410.72 315.973C413.564 316.977 416.482 318.128 419.496 319.428L420.288 317.592C417.238 316.276 414.277 315.108 411.386 314.087ZM428.97 321.606L428.088 323.402C430.818 324.742 433.628 326.189 436.533 327.746L437.478 325.983C434.555 324.417 431.723 322.958 428.97 321.606ZM445.852 330.613L444.863 332.352C446.22 333.123 447.596 333.916 448.995 334.729L454.753 338.078L449.698 327.892L447.906 328.781L450 333C449.475 332.695 448.953 332.392 448.433 332.092C447.91 331.79 447.389 331.491 446.872 331.195C446.53 331 446.19 330.806 445.852 330.613ZM443.719 320.344L445.51 319.455L441.323 311.017L439.531 311.906L443.719 320.344ZM435.344 303.469L437.135 302.58L432.948 294.142L431.156 295.031L435.344 303.469ZM426.969 286.594L428.76 285.705L424.573 277.267L422.781 278.156L426.969 286.594ZM418.594 269.719L420.385 268.83L416.198 260.392L414.406 261.281L418.594 269.719ZM410.219 252.844L412.01 251.955L407.823 243.517L406.031 244.406L410.219 252.844ZM401.844 235.969L403.635 235.08L399.448 226.642L397.656 227.531L401.844 235.969ZM393.469 219.094L395.26 218.205L391.073 209.767L389.281 210.656L393.469 219.094Z" fill="#242932"/>
<path d="M370.093 303.175C370.058 302.456 370.043 301.729 370.048 300.995L370.061 300.506L370.065 300.337C370.096 299.067 370.188 297.826 370.336 296.623L368.351 296.38C368.195 297.647 368.098 298.953 368.065 300.288L368.061 300.457L368.049 300.963C368.043 301.74 368.058 302.51 368.095 303.271L370.093 303.175Z" fill="#242932"/>
<g style="mix-blend-mode:multiply" opacity="0.7">
<path d="M277 142H284V394H277V142Z" fill="#B39A51"/>
</g>
<path d="M237 142C237 128.193 248.193 117 262 117H277V368H248C241.925 368 237 363.075 237 357V142Z" fill="#FFD86E"/>
<g style="mix-blend-mode:multiply" opacity="0.7">
<path d="M237 378C237 369.163 244.163 362 253 362H277V394H253C244.163 394 237 386.837 237 378V378Z" fill="#B39A51"/>
</g>
<g style="mix-blend-mode:multiply" opacity="0.07">
<rect x="277.25" y="189.25" width="229.5" height="0.5" stroke="#242932" stroke-width="0.5"/>
<rect x="277.25" y="221.65" width="229.5" height="0.5" stroke="#242932" stroke-width="0.5"/>
<rect x="277.25" y="254.05" width="229.5" height="0.5" stroke="#242932" stroke-width="0.5"/>
<rect x="277.25" y="286.45" width="229.5" height="0.5" stroke="#242932" stroke-width="0.5"/>
<rect x="277.25" y="318.85" width="229.5" height="0.5" stroke="#242932" stroke-width="0.5"/>
<rect x="277.25" y="351.25" width="229.5" height="0.5" stroke="#242932" stroke-width="0.5"/>
</g>
<g style="mix-blend-mode:multiply" opacity="0.07">
<rect x="473.75" y="158.25" width="219.5" height="0.5" transform="rotate(90 473.75 158.25)" stroke="#242932" stroke-width="0.5"/>
<rect x="439.35" y="158.25" width="219.5" height="0.5" transform="rotate(90 439.35 158.25)" stroke="#242932" stroke-width="0.5"/>
<rect x="404.95" y="158.25" width="219.5" height="0.5" transform="rotate(90 404.95 158.25)" stroke="#242932" stroke-width="0.5"/>
<rect x="370.55" y="158.25" width="219.5" height="0.5" transform="rotate(90 370.55 158.25)" stroke="#242932" stroke-width="0.5"/>
<rect x="336.15" y="158.25" width="219.5" height="0.5" transform="rotate(90 336.15 158.25)" stroke="#242932" stroke-width="0.5"/>
<rect x="301.75" y="158.25" width="219.5" height="0.5" transform="rotate(90 301.75 158.25)" stroke="#242932" stroke-width="0.5"/>
</g>
<defs>
<linearGradient id="paint0_linear_944_116" x1="291" y1="245.5" x2="509" y2="386" gradientUnits="userSpaceOnUse">
<stop stop-color="#FFD971"/>
<stop offset="1" stop-color="#FFE08B"/>
</linearGradient>
</defs>
</svg>
